<svg xmlns="http://www.w3.org/2000/svg" width="22" height="12" viewBox="0 0 22 12">
    <path fill="#FFF" fill-rule="nonzero" d="M20.628 11.539c-.105-.02-.154-.054-.184-.103l-.87-1.41H1.56l-.87 1.41a.215.215 0 0 1-.134.097c-.09.006-.129-.005-.163-.026l-.29-.18a.215.215 0 0 1-.07-.297l.618-1.004h-.29a.216.216 0 0 1-.216-.215V6.46c0-.118.097-.215.216-.215h.784v-.448L1.146.216c0-.12.097-.216.216-.216h18.56c.119 0 .216.096.216.216v6.03h.785c.12 0 .216.097.216.216V9.81a.216.216 0 0 1-.216.215h-.44l.62 1.004a.216.216 0 0 1-.07.297l-.292.18a.217.217 0 0 1-.113.032zm-.263-2.286V7.02H.918v2.234h19.447zm-1.002-3.007v-.373c0-1.106-.9-2.006-2.006-2.006h-4.324c-1.07 0-1.95.838-2.003 1.907-.003.039-.003.069-.003.099v.373h8.336zm-9.109 0v-.48a2.014 2.014 0 0 0-2.006-1.974H3.924A2.01 2.01 0 0 0 1.92 5.787v.46h8.334zM8.248 3.02c1.005 0 1.926.55 2.414 1.406a2.765 2.765 0 0 1 2.372-1.331h4.323c.764 0 1.488.32 2.007.863V.773H1.92V3.88a2.783 2.783 0 0 1 2.004-.86h4.324z"/>
</svg>
