<svg xmlns="http://www.w3.org/2000/svg" width="30" height="13" viewBox="0 0 30 13">
    <g fill="#9B9B9B" fill-rule="evenodd">
        <path d="M11.664 11.593H1.336a.81.81 0 0 1-.802-.817V9.67h11.932v1.107a.81.81 0 0 1-.802.817zM2.912 1.085a12.215 12.215 0 0 1 7.175 0l.297.092v2.338H8.637V2.72l.006-.004a.276.276 0 0 0 .108-.369.265.265 0 0 0-.362-.11l-.072.04c-.3-.036-1.327-.153-1.917-.153-.637 0-1.547.106-1.875.146l-.066-.067a.264.264 0 0 0-.378.002.276.276 0 0 0 .002.385l.08.08v.846H2.616V1.177l.296-.092zm5.19 3.177c-.354.053-1.072.145-1.702.145-.57 0-1.33-.095-1.703-.147V2.797c.385-.045 1.164-.129 1.703-.129.479 0 1.3.086 1.703.13v1.464zm-3.94-.202v.333l-.091.106a.276.276 0 0 0 .023.385.265.265 0 0 0 .377-.024l.064-.073c.334.048 1.2.165 1.865.165.688 0 1.449-.1 1.807-.155a.266.266 0 0 0 .236.155.264.264 0 0 0 .1-.02.274.274 0 0 0 .148-.354l-.054-.136V4.06h1.86l1.859 3.272H.644L2.503 4.06h1.66zM.535 9.125h11.932V7.876H.534v1.249zm10.384-5.41V.271A.27.27 0 0 0 10.651 0a.27.27 0 0 0-.267.272v.336l-.143-.044a12.726 12.726 0 0 0-7.483 0l-.142.044V.272A.27.27 0 0 0 2.349 0a.27.27 0 0 0-.267.272v3.442L0 7.378v3.398a1.35 1.35 0 0 0 1.158 1.344v.608c0 .15.12.272.267.272a.27.27 0 0 0 .267-.272v-.59h9.616v.59c0 .15.12.272.267.272a.27.27 0 0 0 .267-.272v-.608A1.35 1.35 0 0 0 13 10.776V7.378l-2.082-3.664zM28.664 11.593H18.336a.81.81 0 0 1-.802-.817V9.67h11.932v1.107a.81.81 0 0 1-.802.817zM19.912 1.085a12.215 12.215 0 0 1 7.175 0l.297.092v2.338h-1.747V2.72l.006-.004a.276.276 0 0 0 .108-.369.265.265 0 0 0-.362-.11l-.072.04c-.3-.036-1.327-.153-1.917-.153-.637 0-1.547.106-1.875.146l-.066-.067a.264.264 0 0 0-.378.002.276.276 0 0 0 .002.385l.08.08v.846h-1.547V1.177l.296-.092zm5.19 3.177c-.354.053-1.072.145-1.702.145-.57 0-1.33-.095-1.703-.147V2.797c.385-.045 1.164-.129 1.703-.129.479 0 1.3.086 1.703.13v1.464zm-3.94-.202v.333l-.091.106a.276.276 0 0 0 .023.385.265.265 0 0 0 .377-.024l.064-.073c.334.048 1.2.165 1.865.165.688 0 1.449-.1 1.807-.155a.266.266 0 0 0 .236.155.264.264 0 0 0 .1-.02.274.274 0 0 0 .148-.354l-.054-.136V4.06h1.86l1.859 3.272H17.644l1.859-3.272h1.66zm-3.628 5.065h11.932V7.876H17.534v1.249zm10.384-5.41V.271A.27.27 0 0 0 27.651 0a.27.27 0 0 0-.267.272v.336l-.143-.044a12.726 12.726 0 0 0-7.483 0l-.142.044V.272A.27.27 0 0 0 19.349 0a.27.27 0 0 0-.267.272v3.442L17 7.378v3.398a1.35 1.35 0 0 0 1.158 1.344v.608c0 .15.12.272.267.272a.27.27 0 0 0 .267-.272v-.59h9.616v.59c0 .15.12.272.267.272a.27.27 0 0 0 .267-.272v-.608A1.35 1.35 0 0 0 30 10.776V7.378l-2.082-3.664z"/>
    </g>
</svg>
